# xmcd
#
# Track frame offsets:
#	150
#	19593
#	41220
#	57613
#	74943
#	88453
#	109390
#	123795
#	137850
#	157830
#	168673
#	177048
#	200075
#	222008
#	240000
#	250690
#	264103
#	276523
#
# Disc length: 3902 seconds
#
# Revision: 1
# Processed by: cddbd v1.5.1PL0 Copyright (c) Steve Scherf et al.
# Submitted via: EasyCDDAExtractor 6.5.9.5
#
DISCID=0d0f3c12
DTITLE=Various Artist - The Prestige Folklore Years Vol. 2
DYEAR=1900
DGENRE=Blues
TTITLE0=Dave Van Ronk - Cocaine Blues
TTITLE1=Dave Van Ronk - Death Letter Blues
TTITLE2=Jesse Fuller - Red River Blues
TTITLE3=Jesse Fuller - How Long Blues
TTITLE4=Jesse Fuller - San Francisco Bay Blues
TTITLE5=Geoff Muldaur - Sleepy Man Blues
TTITLE6=Geoff Muldaur - Aberdeen Mississippi Blues
TTITLE7=Tracy Nelson - Motherless Child Blues
TTITLE8=Tracy Nelson - Startin' For Chicago
TTITLE9=Tracy Nelson - Ramblin' Man
TTITLE10=Eric Von Schmidt - Crow Jane
TTITLE11=Eric Von Schmidt - Light Man
TTITLE12=Eric Von Schmidt - Kennedy Blues
TTITLE13=Tom Rush - Orphan's Blues
TTITLE14=Larry and Hank - If You Don't Want Me Baby
TTITLE15=Larry and Hank - Watchdog Blues
TTITLE16=Larry and Hank - Four Women Blues
TTITLE17=The New Strangers - Alberta
EXTD=
EXTT0=
EXTT1=
EXTT2=
EXTT3=
EXTT4=
EXTT5=
EXTT6=
EXTT7=
EXTT8=
EXTT9=
EXTT10=
EXTT11=
EXTT12=
EXTT13=
EXTT14=
EXTT15=
EXTT16=
EXTT17=
PLAYORDER=
